<svg width="70" height="70" viewBox="0 0 70 70" fill="none" xmlns="http://www.w3.org/2000/svg">
<g clip-path="url(#clip0_695_4286)">
<path d="M49.584 9.74167C53.9831 12.2817 57.6426 15.9265 60.2001 20.3155C62.7577 24.7044 64.1246 29.6852 64.1656 34.7647C64.2067 39.8443 62.9204 44.8465 60.434 49.2762C57.9477 53.7059 54.3476 57.4094 49.9901 60.0201C45.6326 62.6308 40.6688 64.0582 35.5901 64.161C30.5114 64.2638 25.4939 63.0384 21.0344 60.6061C16.5748 58.1738 12.8278 54.619 10.1643 50.2936C7.50075 45.9681 6.01309 41.0221 5.84857 35.945L5.83398 35L5.84857 34.055C6.01191 29.0179 7.47767 24.1091 10.1029 19.8071C12.7282 15.5051 16.4234 11.9567 20.8283 9.50799C25.2331 7.05925 30.1973 5.79366 35.2369 5.83461C40.2765 5.87556 45.2195 7.22166 49.584 9.74167ZM43.7506 40.8333H26.2507L25.9094 40.8537C25.2005 40.9381 24.5472 41.2795 24.0731 41.8132C23.5991 42.347 23.3372 43.0361 23.3372 43.75C23.3372 44.4639 23.5991 45.153 24.0731 45.6868C24.5472 46.2205 25.2005 46.5619 25.9094 46.6462L26.2507 46.6667H43.7506L44.0919 46.6462C44.8008 46.5619 45.4541 46.2205 45.9282 45.6868C46.4022 45.153 46.6641 44.4639 46.6641 43.75C46.6641 43.0361 46.4022 42.347 45.9282 41.8132C45.4541 41.2795 44.8008 40.9381 44.0919 40.8537L43.7506 40.8333ZM26.2798 26.25L25.9094 26.2704C25.2005 26.3547 24.5472 26.6961 24.0731 27.2299C23.5991 27.7637 23.3372 28.4528 23.3372 29.1667C23.3372 29.8806 23.5991 30.5697 24.0731 31.1034C24.5472 31.6372 25.2005 31.9786 25.9094 32.0629L26.2507 32.0833L26.6211 32.0629C27.33 31.9786 27.9833 31.6372 28.4574 31.1034C28.9314 30.5697 29.1932 29.8806 29.1932 29.1667C29.1932 28.4528 28.9314 27.7637 28.4574 27.2299C27.9833 26.6961 27.33 26.3547 26.6211 26.2704L26.2798 26.25ZM43.7798 26.25L43.4094 26.2704C42.7005 26.3547 42.0472 26.6961 41.5731 27.2299C41.0991 27.7637 40.8372 28.4528 40.8372 29.1667C40.8372 29.8806 41.0991 30.5697 41.5731 31.1034C42.0472 31.6372 42.7005 31.9786 43.4094 32.0629L43.7506 32.0833L44.1211 32.0629C44.83 31.9786 45.4833 31.6372 45.9574 31.1034C46.4314 30.5697 46.6932 29.8806 46.6932 29.1667C46.6932 28.4528 46.4314 27.7637 45.9574 27.2299C45.4833 26.6961 44.83 26.3547 44.1211 26.2704L43.7798 26.25Z" fill="#F57C00"/>
</g>
<defs>
<clipPath id="clip0_695_4286">
<rect width="70" height="70" fill="white"/>
</clipPath>
</defs>
</svg>
