<svg width="60" height="60" viewBox="0 0 60 60" fill="none" xmlns="http://www.w3.org/2000/svg">
<path d="M44.584 4.74167C48.9831 7.28166 52.6426 10.9265 55.2001 15.3155C57.7577 19.7044 59.1246 24.6852 59.1656 29.7647C59.2067 34.8443 57.9204 39.8465 55.434 44.2762C52.9477 48.7059 49.3476 52.4094 44.9901 55.0201C40.6326 57.6308 35.6688 59.0582 30.5901 59.161C25.5114 59.2638 20.4939 58.0384 16.0344 55.6061C11.5748 53.1738 7.82777 49.619 5.16426 45.2936C2.50075 40.9681 1.01309 36.0221 0.848568 30.945L0.833984 30L0.848568 29.055C1.01191 24.0179 2.47767 19.1091 5.10293 14.8071C7.7282 10.5051 11.4234 6.95674 15.8283 4.50799C20.2331 2.05925 25.1973 0.793659 30.2369 0.834612C35.2765 0.875565 40.2195 2.22166 44.584 4.74167ZM38.7506 35.8333H21.2507L20.9094 35.8537C20.2005 35.9381 19.5472 36.2795 19.0731 36.8132C18.5991 37.347 18.3372 38.0361 18.3372 38.75C18.3372 39.4639 18.5991 40.153 19.0731 40.6868C19.5472 41.2205 20.2005 41.5619 20.9094 41.6462L21.2507 41.6667H38.7506L39.0919 41.6462C39.8008 41.5619 40.4541 41.2205 40.9282 40.6868C41.4022 40.153 41.6641 39.4639 41.6641 38.75C41.6641 38.0361 41.4022 37.347 40.9282 36.8132C40.4541 36.2795 39.8008 35.9381 39.0919 35.8537L38.7506 35.8333ZM21.2798 21.25L20.9094 21.2704C20.2005 21.3547 19.5472 21.6961 19.0731 22.2299C18.5991 22.7637 18.3372 23.4528 18.3372 24.1667C18.3372 24.8806 18.5991 25.5697 19.0731 26.1034C19.5472 26.6372 20.2005 26.9786 20.9094 27.0629L21.2507 27.0833L21.6211 27.0629C22.33 26.9786 22.9833 26.6372 23.4574 26.1034C23.9314 25.5697 24.1932 24.8806 24.1932 24.1667C24.1932 23.4528 23.9314 22.7637 23.4574 22.2299C22.9833 21.6961 22.33 21.3547 21.6211 21.2704L21.2798 21.25ZM38.7798 21.25L38.4094 21.2704C37.7005 21.3547 37.0472 21.6961 36.5731 22.2299C36.0991 22.7637 35.8372 23.4528 35.8372 24.1667C35.8372 24.8806 36.0991 25.5697 36.5731 26.1034C37.0472 26.6372 37.7005 26.9786 38.4094 27.0629L38.7506 27.0833L39.1211 27.0629C39.83 26.9786 40.4833 26.6372 40.9574 26.1034C41.4314 25.5697 41.6932 24.8806 41.6932 24.1667C41.6932 23.4528 41.4314 22.7637 40.9574 22.2299C40.4833 21.6961 39.83 21.3547 39.1211 21.2704L38.7798 21.25Z" fill="#F57C00"/>
</svg>
