<svg width="9" height="10" viewBox="0 0 9 10" fill="none" xmlns="http://www.w3.org/2000/svg">
<path d="M4.58213 0.453318C4.72818 0.453318 4.872 0.462794 5.00579 0.485092C5.1376 0.502071 5.26763 0.530801 5.39432 0.570938C5.52068 0.608845 5.64592 0.657714 5.77004 0.717546C5.89101 0.774963 6.01532 0.845201 6.13963 0.921571C6.34978 1.05536 6.55659 1.1635 6.76731 1.2499C7.18202 1.41627 7.62072 1.51508 8.06671 1.54256C8.29229 1.55929 8.52586 1.56783 8.76742 1.56821V3.79798C8.76742 4.22127 8.71334 4.62374 8.6052 5.0054C8.5013 5.38235 8.35369 5.74585 8.16538 6.08852C7.97788 6.43072 7.75598 6.75291 7.50313 7.05011C7.24657 7.3542 6.96863 7.63959 6.67143 7.90411C6.37004 8.16908 6.05303 8.41572 5.7221 8.64272C5.39061 8.87313 5.05726 9.08552 4.72205 9.27988L4.58826 9.3596L4.45447 9.27988C4.11062 9.08087 3.77477 8.86831 3.44773 8.64272C3.11503 8.41816 2.79787 8.1714 2.4984 7.90411C2.2014 7.63957 1.92364 7.35418 1.66726 7.05011C1.41526 6.75151 1.19239 6.42952 1.00167 6.08852C0.816742 5.74425 0.669291 5.38113 0.561845 5.0054C0.453736 4.61211 0.400093 4.20585 0.402416 3.79798V1.56821C0.643975 1.56783 0.87773 1.55929 1.10368 1.54256C1.3265 1.52742 1.54787 1.49555 1.76592 1.44724C1.97942 1.3993 2.19293 1.33575 2.40308 1.2499C2.6211 1.16178 2.83017 1.05295 3.02742 0.924915C3.27269 0.765486 3.52131 0.647866 3.76659 0.570381C4.03076 0.48949 4.30587 0.450001 4.58213 0.453318ZM8.20663 2.11617C7.78468 2.09552 7.36666 2.02498 6.9613 1.90602C6.55823 1.78547 6.17425 1.60849 5.82077 1.38035C5.63737 1.26028 5.43836 1.16593 5.22932 1.09995C5.02038 1.03694 4.80314 1.00574 4.58492 1.00742C4.36506 1.00608 4.14622 1.03726 3.93549 1.09995C3.72621 1.16397 3.52748 1.25844 3.34572 1.38035C2.9915 1.60951 2.60656 1.78725 2.2024 1.90825C1.80736 2.02308 1.39318 2.09332 0.95986 2.11896V3.80077C0.95986 4.1698 1.0078 4.52433 1.10368 4.86437C1.20144 5.20198 1.33604 5.52781 1.50504 5.83599C1.67613 6.14736 1.87781 6.4409 2.10708 6.7123C2.33953 6.986 2.5876 7.24075 2.85517 7.48268C3.12274 7.72461 3.40314 7.94871 3.69635 8.15496C3.99254 8.36159 4.28873 8.55056 4.58492 8.72188C4.88815 8.54566 5.18368 8.35651 5.47069 8.15496C5.7662 7.94927 6.04811 7.72471 6.31466 7.48268C6.58224 7.24075 6.83086 6.986 7.06331 6.7123C7.29258 6.4409 7.49426 6.14736 7.66535 5.83599C7.8335 5.52815 7.96609 5.20218 8.06058 4.86437C8.15947 4.51856 8.20865 4.16044 8.20663 3.80077V2.11617Z" fill="#47A64F"/>
<path fill-rule="evenodd" clip-rule="evenodd" d="M6.66028 3.07833L6.41501 2.86761L6.18869 2.88713L3.75823 5.75685L2.93043 4.57506L2.70745 4.53716L2.44935 4.72167L2.41089 4.94465L3.47505 6.46424L3.59601 6.53113L3.85077 6.54674L3.98121 6.48988L6.67645 3.30409L6.66028 3.07833Z" fill="#47A64F"/>
</svg>
