<svg width="29" height="29" viewBox="0 0 29 29" fill="none" xmlns="http://www.w3.org/2000/svg">
<path fill-rule="evenodd" clip-rule="evenodd" d="M14.6912 28.456C7.08395 28.456 0.917725 22.2897 0.917725 14.6825C0.917725 7.07519 7.08395 0.908966 14.6912 0.908966C22.2985 0.908966 28.4647 7.07519 28.4647 14.6825C28.4647 22.2897 22.2985 28.456 14.6912 28.456ZM14.9323 20.9881C15.8172 21.6002 16.9397 21.9643 18.1553 21.9643C18.4577 21.9643 18.7558 21.9422 19.0497 21.8981C19.1504 21.9394 19.2477 21.9902 19.3673 22.059C19.6256 22.2105 19.9699 22.443 20.4003 22.7563C20.7524 23.0137 21.2509 22.7649 21.2509 22.3319V21.0742C21.4316 20.9572 21.6024 20.8303 21.7631 20.6937C22.7358 19.869 23.2997 18.7413 23.2997 17.5319C23.2997 16.7356 23.0586 15.9909 22.6351 15.3479C22.5011 15.8044 22.3203 16.2458 22.0953 16.665C22.1854 16.9433 22.2311 17.2323 22.2322 17.5319C22.2322 18.422 21.8121 19.2622 21.0684 19.8923C20.8764 20.0543 20.6698 20.1981 20.4511 20.3218C20.37 20.3675 20.3024 20.4338 20.2554 20.5142C20.2084 20.5945 20.1835 20.6859 20.1834 20.779V21.3161C19.6729 20.989 19.3226 20.8349 19.0557 20.8349C19.0257 20.8359 18.9959 20.8385 18.9662 20.8427C18.2183 20.9676 17.4516 20.9175 16.7263 20.6963C16.1388 20.8486 15.5385 20.9466 14.9331 20.989L14.9323 20.9881ZM8.5052 18.4728C8.78858 18.7136 9.08893 18.9336 9.40392 19.1313V21.2765C9.40392 21.8189 10.028 22.1288 10.4679 21.8068C11.6817 20.9201 12.5253 20.4191 12.7362 20.3692C13.2241 20.4467 13.7199 20.4854 14.2238 20.4854C18.7002 20.4854 22.3656 17.3803 22.3656 13.4954C22.3656 9.60951 18.6993 6.50445 14.2238 6.50445C9.74826 6.50445 6.08279 9.60951 6.08279 13.4945C6.08279 15.397 6.96946 17.1712 8.5052 18.4728ZM12.7655 19.0461C12.3325 19.0461 11.6998 19.3517 10.7391 19.9965V18.7594C10.7382 18.6431 10.7067 18.529 10.6478 18.4286C10.5889 18.3283 10.5046 18.2452 10.4034 18.1878C10.0391 17.9806 9.69445 17.7406 9.37379 17.4707C8.12299 16.4128 7.41709 14.9975 7.41709 13.4945C7.41709 10.3869 10.4438 7.82326 14.2238 7.82326C18.0046 7.82326 21.0305 10.3869 21.0305 13.4945C21.0305 16.6021 18.0046 19.1666 14.2238 19.1666C13.767 19.1666 13.3182 19.1293 12.8774 19.0547C12.8403 19.0494 12.803 19.0465 12.7655 19.0461ZM10.7537 14.8142C11.3434 14.8142 11.8212 14.3407 11.8212 13.7588C11.8212 13.176 11.3434 12.7034 10.7537 12.7034C10.164 12.7034 9.68628 13.176 9.68628 13.7588C9.68628 14.3416 10.164 14.8142 10.7537 14.8142ZM14.2238 14.8142C14.8135 14.8142 15.2912 14.3407 15.2912 13.7588C15.2912 13.176 14.8135 12.7034 14.2238 12.7034C13.6341 12.7034 13.1563 13.176 13.1563 13.7588C13.1563 14.3416 13.6341 14.8142 14.2238 14.8142ZM17.6938 14.8142C18.2835 14.8142 18.7613 14.3407 18.7613 13.7588C18.7613 13.176 18.2835 12.7034 17.6938 12.7034C17.1042 12.7034 16.6264 13.176 16.6264 13.7588C16.6264 14.3416 17.1042 14.8142 17.6938 14.8142Z" fill="#1E3A8A"/>
</svg>
