<svg width="13" height="13" viewBox="0 0 13 13" fill="none" xmlns="http://www.w3.org/2000/svg">
<g clip-path="url(#clip0_3_14)">
<path d="M4.74756 11.7073L3.77808 10.0745L1.94116 9.66626L2.11975 7.77832L0.869629 6.34961L2.11975 4.9209L1.94116 3.03296L3.77808 2.62476L4.74756 0.991943L6.48242 1.73181L8.21729 0.991943L9.18677 2.62476L11.0237 3.03296L10.8451 4.9209L12.0952 6.34961L10.8451 7.77832L11.0237 9.66626L9.18677 10.0745L8.21729 11.7073L6.48242 10.9674L4.74756 11.7073ZM5.94666 8.16101L8.82959 5.27808L8.11523 4.53821L5.94666 6.70679L4.84961 5.63525L4.13525 6.34961L5.94666 8.16101Z" fill="#1E3A8A"/>
</g>
<defs>
<clipPath id="clip0_3_14">
<rect width="12.2461" height="12.2461" fill="white" transform="translate(0.359375 0.226562)"/>
</clipPath>
</defs>
</svg>
